<svg xmlns="http://www.w3.org/2000/svg" xmlns:xlink="http://www.w3.org/1999/xlink" version="1.1" width="768px" height="384px" viewBox="0 0 768 384">
<defs>
<clipPath id="clip-1" fill-rule="nonzero" ><path d="M 0,0 L 0,32 768,32 768,0 Z" /></clipPath>
<clipPath id="clip-2" fill-rule="nonzero" ><path d="M 0,355.6 L 0,384 768,384 768,355.6 Z" /></clipPath>
<clipPath id="clip-3" fill-rule="nonzero" ><path d="M 0,0 L 0,384 32,384 32,0 Z" /></clipPath>
<clipPath id="clip-4" fill-rule="nonzero" ><path d="M 32,32 L 32,355.6 768,355.6 768,32 Z" /></clipPath></defs>
<g stroke="none" fill="transparent" fill-rule="nonzero" fill-opacity="1" >
<rect x="0" y="0" width="768" height="384" transform="matrix(1 0 0 1 0 0)" /></g>
<g stroke="rgb(0,0,0)" stroke-width="1" stroke-linecap="butt" stroke-linejoin="miter" stroke-miterlimit="4" stroke-opacity="0.1" fill="none">
<path d="M 32.5,32 L 32.5,355" />
</g>
<g stroke="rgb(0,0,0)" stroke-width="1" stroke-linecap="butt" stroke-linejoin="miter" stroke-miterlimit="4" stroke-opacity="0.1" fill="none">
<path d="M 32.5,356 L 32.5,363.6" />
</g>
<g stroke="rgb(0,0,0)" stroke-width="1" stroke-linecap="butt" stroke-linejoin="miter" stroke-miterlimit="4" stroke-opacity="0.1" fill="none">
<path d="M 216.5,32 L 216.5,355" />
</g>
<g stroke="rgb(0,0,0)" stroke-width="1" stroke-linecap="butt" stroke-linejoin="miter" stroke-miterlimit="4" stroke-opacity="0.1" fill="none">
<path d="M 216.5,356 L 216.5,363.6" />
</g>
<g stroke="rgb(0,0,0)" stroke-width="1" stroke-linecap="butt" stroke-linejoin="miter" stroke-miterlimit="4" stroke-opacity="0.1" fill="none">
<path d="M 400.5,32 L 400.5,355" />
</g>
<g stroke="rgb(0,0,0)" stroke-width="1" stroke-linecap="butt" stroke-linejoin="miter" stroke-miterlimit="4" stroke-opacity="0.1" fill="none">
<path d="M 400.5,356 L 400.5,363.6" />
</g>
<g stroke="rgb(0,0,0)" stroke-width="1" stroke-linecap="butt" stroke-linejoin="miter" stroke-miterlimit="4" stroke-opacity="0.1" fill="none">
<path d="M 584.5,32 L 584.5,355" />
</g>
<g stroke="rgb(0,0,0)" stroke-width="1" stroke-linecap="butt" stroke-linejoin="miter" stroke-miterlimit="4" stroke-opacity="0.1" fill="none">
<path d="M 584.5,356 L 584.5,363.6" />
</g>
<g stroke="rgb(0,0,0)" stroke-width="1" stroke-linecap="butt" stroke-linejoin="miter" stroke-miterlimit="4" stroke-opacity="0.1" fill="none">
<path d="M 768.5,32 L 768.5,355" />
</g>
<g stroke="rgb(0,0,0)" stroke-width="1" stroke-linecap="butt" stroke-linejoin="miter" stroke-miterlimit="4" stroke-opacity="0.1" fill="none">
<path d="M 768.5,356 L 768.5,363.6" />
</g>
<g stroke="rgb(0,0,0)" stroke-width="1" stroke-linecap="butt" stroke-linejoin="miter" stroke-miterlimit="4" stroke-opacity="0.1" fill="none">
<path d="M 33,355.5 L 768,355.5" />
</g>
<g stroke="rgb(0,0,0)" stroke-width="1" stroke-linecap="butt" stroke-linejoin="miter" stroke-miterlimit="4" stroke-opacity="0.1" fill="none">
<path d="M 24,355.5 L 32,355.5" />
</g>
<g stroke="rgb(0,0,0)" stroke-width="1" stroke-linecap="butt" stroke-linejoin="miter" stroke-miterlimit="4" stroke-opacity="0.1" fill="none">
<path d="M 33,315.5 L 768,315.5" />
</g>
<g stroke="rgb(0,0,0)" stroke-width="1" stroke-linecap="butt" stroke-linejoin="miter" stroke-miterlimit="4" stroke-opacity="0.1" fill="none">
<path d="M 24,315.5 L 32,315.5" />
</g>
<g stroke="rgb(0,0,0)" stroke-width="1" stroke-linecap="butt" stroke-linejoin="miter" stroke-miterlimit="4" stroke-opacity="0.1" fill="none">
<path d="M 33,274.5 L 768,274.5" />
</g>
<g stroke="rgb(0,0,0)" stroke-width="1" stroke-linecap="butt" stroke-linejoin="miter" stroke-miterlimit="4" stroke-opacity="0.1" fill="none">
<path d="M 24,274.5 L 32,274.5" />
</g>
<g stroke="rgb(0,0,0)" stroke-width="1" stroke-linecap="butt" stroke-linejoin="miter" stroke-miterlimit="4" stroke-opacity="0.1" fill="none">
<path d="M 33,234.5 L 768,234.5" />
</g>
<g stroke="rgb(0,0,0)" stroke-width="1" stroke-linecap="butt" stroke-linejoin="miter" stroke-miterlimit="4" stroke-opacity="0.1" fill="none">
<path d="M 24,234.5 L 32,234.5" />
</g>
<g stroke="rgb(0,0,0)" stroke-width="1" stroke-linecap="butt" stroke-linejoin="miter" stroke-miterlimit="4" stroke-opacity="0.1" fill="none">
<path d="M 33,193.5 L 768,193.5" />
</g>
<g stroke="rgb(0,0,0)" stroke-width="1" stroke-linecap="butt" stroke-linejoin="miter" stroke-miterlimit="4" stroke-opacity="0.1" fill="none">
<path d="M 24,193.5 L 32,193.5" />
</g>
<g stroke="rgb(0,0,0)" stroke-width="1" stroke-linecap="butt" stroke-linejoin="miter" stroke-miterlimit="4" stroke-opacity="0.1" fill="none">
<path d="M 33,153.5 L 768,153.5" />
</g>
<g stroke="rgb(0,0,0)" stroke-width="1" stroke-linecap="butt" stroke-linejoin="miter" stroke-miterlimit="4" stroke-opacity="0.1" fill="none">
<path d="M 24,153.5 L 32,153.5" />
</g>
<g stroke="rgb(0,0,0)" stroke-width="1" stroke-linecap="butt" stroke-linejoin="miter" stroke-miterlimit="4" stroke-opacity="0.1" fill="none">
<path d="M 33,112.5 L 768,112.5" />
</g>
<g stroke="rgb(0,0,0)" stroke-width="1" stroke-linecap="butt" stroke-linejoin="miter" stroke-miterlimit="4" stroke-opacity="0.1" fill="none">
<path d="M 24,112.5 L 32,112.5" />
</g>
<g stroke="rgb(0,0,0)" stroke-width="1" stroke-linecap="butt" stroke-linejoin="miter" stroke-miterlimit="4" stroke-opacity="0.1" fill="none">
<path d="M 33,72.5 L 768,72.5" />
</g>
<g stroke="rgb(0,0,0)" stroke-width="1" stroke-linecap="butt" stroke-linejoin="miter" stroke-miterlimit="4" stroke-opacity="0.1" fill="none">
<path d="M 24,72.5 L 32,72.5" />
</g>
<g stroke="rgb(0,0,0)" stroke-width="1" stroke-linecap="butt" stroke-linejoin="miter" stroke-miterlimit="4" stroke-opacity="0.1" fill="none">
<path d="M 33,32.5 L 768,32.5" />
</g>
<g stroke="rgb(0,0,0)" stroke-width="1" stroke-linecap="butt" stroke-linejoin="miter" stroke-miterlimit="4" stroke-opacity="0.1" fill="none">
<path d="M 24,32.5 L 32,32.5" />
</g>
<g stroke="none" fill="rgb(255,99,132)" fill-rule="nonzero" fill-opacity="1"  clip-path="url(#clip-1)" >
<path d="M 259,10 L 259,22 299,22 299,10 Z" />
</g>
<g stroke="none" fill="#666" fill-rule="nonzero" fill-opacity="1"  clip-path="url(#clip-1)" >
<text style="font:normal 12px &apos;Helvetica Neue&apos;, &apos;Helvetica&apos;, &apos;Arial&apos;, sans-serif;" text-anchor="start" dominant-baseline="middle" transform="matrix(1 0 0 1 0 0)" 
><tspan x="305" y="16">Connect time (ms) - 10 conn (echo)</tspan></text></g>
<g stroke="rgb(0,0,0)" stroke-width="1" stroke-linecap="butt" stroke-linejoin="miter" stroke-miterlimit="4" stroke-opacity="0.1" fill="none">
<path d="M 32,355.5 L 769,355.5" />
</g>
<g stroke="none" fill="#666" fill-rule="nonzero" fill-opacity="1"  clip-path="url(#clip-2)" >
<text style="font:normal 12px &apos;Helvetica Neue&apos;, &apos;Helvetica&apos;, &apos;Arial&apos;, sans-serif;" text-anchor="middle" dominant-baseline="middle" transform="matrix(1 0 0 1 124 366.6)" 
><tspan x="0" y="7.199999999999999">django-channels</tspan></text></g>
<g stroke="none" fill="#666" fill-rule="nonzero" fill-opacity="1"  clip-path="url(#clip-2)" >
<text style="font:normal 12px &apos;Helvetica Neue&apos;, &apos;Helvetica&apos;, &apos;Arial&apos;, sans-serif;" text-anchor="middle" dominant-baseline="middle" transform="matrix(1 0 0 1 308 366.6)" 
><tspan x="0" y="7.199999999999999">python-websockets</tspan></text></g>
<g stroke="none" fill="#666" fill-rule="nonzero" fill-opacity="1"  clip-path="url(#clip-2)" >
<text style="font:normal 12px &apos;Helvetica Neue&apos;, &apos;Helvetica&apos;, &apos;Arial&apos;, sans-serif;" text-anchor="middle" dominant-baseline="middle" transform="matrix(1 0 0 1 492 366.6)" 
><tspan x="0" y="7.199999999999999">fastapi</tspan></text></g>
<g stroke="none" fill="#666" fill-rule="nonzero" fill-opacity="1"  clip-path="url(#clip-2)" >
<text style="font:normal 12px &apos;Helvetica Neue&apos;, &apos;Helvetica&apos;, &apos;Arial&apos;, sans-serif;" text-anchor="middle" dominant-baseline="middle" transform="matrix(1 0 0 1 676 366.6)" 
><tspan x="0" y="7.199999999999999">webrockets</tspan></text></g>
<g stroke="rgb(0,0,0)" stroke-width="1" stroke-linecap="butt" stroke-linejoin="miter" stroke-miterlimit="4" stroke-opacity="0.1" fill="none">
<path d="M 32.5,32 L 32.5,356" />
</g>
<g stroke="none" fill="#666" fill-rule="nonzero" fill-opacity="1"  clip-path="url(#clip-3)" >
<text style="font:normal 12px &apos;Helvetica Neue&apos;, &apos;Helvetica&apos;, &apos;Arial&apos;, sans-serif;" text-anchor="end" dominant-baseline="middle" transform="matrix(1 0 0 1 21 355.6)" 
><tspan x="0" y="0">0</tspan></text></g>
<g stroke="none" fill="#666" fill-rule="nonzero" fill-opacity="1"  clip-path="url(#clip-3)" >
<text style="font:normal 12px &apos;Helvetica Neue&apos;, &apos;Helvetica&apos;, &apos;Arial&apos;, sans-serif;" text-anchor="end" dominant-baseline="middle" transform="matrix(1 0 0 1 21 315.15000000000003)" 
><tspan x="0" y="0">0.1</tspan></text></g>
<g stroke="none" fill="#666" fill-rule="nonzero" fill-opacity="1"  clip-path="url(#clip-3)" >
<text style="font:normal 12px &apos;Helvetica Neue&apos;, &apos;Helvetica&apos;, &apos;Arial&apos;, sans-serif;" text-anchor="end" dominant-baseline="middle" transform="matrix(1 0 0 1 21 274.70000000000005)" 
><tspan x="0" y="0">0.2</tspan></text></g>
<g stroke="none" fill="#666" fill-rule="nonzero" fill-opacity="1"  clip-path="url(#clip-3)" >
<text style="font:normal 12px &apos;Helvetica Neue&apos;, &apos;Helvetica&apos;, &apos;Arial&apos;, sans-serif;" text-anchor="end" dominant-baseline="middle" transform="matrix(1 0 0 1 21 234.25)" 
><tspan x="0" y="0">0.3</tspan></text></g>
<g stroke="none" fill="#666" fill-rule="nonzero" fill-opacity="1"  clip-path="url(#clip-3)" >
<text style="font:normal 12px &apos;Helvetica Neue&apos;, &apos;Helvetica&apos;, &apos;Arial&apos;, sans-serif;" text-anchor="end" dominant-baseline="middle" transform="matrix(1 0 0 1 21 193.8)" 
><tspan x="0" y="0">0.4</tspan></text></g>
<g stroke="none" fill="#666" fill-rule="nonzero" fill-opacity="1"  clip-path="url(#clip-3)" >
<text style="font:normal 12px &apos;Helvetica Neue&apos;, &apos;Helvetica&apos;, &apos;Arial&apos;, sans-serif;" text-anchor="end" dominant-baseline="middle" transform="matrix(1 0 0 1 21 153.35000000000002)" 
><tspan x="0" y="0">0.5</tspan></text></g>
<g stroke="none" fill="#666" fill-rule="nonzero" fill-opacity="1"  clip-path="url(#clip-3)" >
<text style="font:normal 12px &apos;Helvetica Neue&apos;, &apos;Helvetica&apos;, &apos;Arial&apos;, sans-serif;" text-anchor="end" dominant-baseline="middle" transform="matrix(1 0 0 1 21 112.90000000000005)" 
><tspan x="0" y="0">0.6</tspan></text></g>
<g stroke="none" fill="#666" fill-rule="nonzero" fill-opacity="1"  clip-path="url(#clip-3)" >
<text style="font:normal 12px &apos;Helvetica Neue&apos;, &apos;Helvetica&apos;, &apos;Arial&apos;, sans-serif;" text-anchor="end" dominant-baseline="middle" transform="matrix(1 0 0 1 21 72.45000000000005)" 
><tspan x="0" y="0">0.7</tspan></text></g>
<g stroke="none" fill="#666" fill-rule="nonzero" fill-opacity="1"  clip-path="url(#clip-3)" >
<text style="font:normal 12px &apos;Helvetica Neue&apos;, &apos;Helvetica&apos;, &apos;Arial&apos;, sans-serif;" text-anchor="end" dominant-baseline="middle" transform="matrix(1 0 0 1 21 32)" 
><tspan x="0" y="0">0.8</tspan></text></g>
<g stroke="none" fill="rgb(255,99,132)" fill-rule="nonzero" fill-opacity="1"  clip-path="url(#clip-4)" >
<path d="M 57.76,254.475 L 57.76,355.1 190.24,355.1 190.24,254.475 Z" />
</g>
<g stroke="none" fill="rgb(255,99,132)" fill-rule="nonzero" fill-opacity="1"  clip-path="url(#clip-4)" >
<path d="M 241.76,254.475 L 241.76,355.1 374.24,355.1 374.24,254.475 Z" />
</g>
<g stroke="none" fill="rgb(255,99,132)" fill-rule="nonzero" fill-opacity="1"  clip-path="url(#clip-4)" >
<path d="M 425.76,161.44 L 425.76,355.1 558.24,355.1 558.24,161.44 Z" />
</g>
<g stroke="none" fill="rgb(255,99,132)" fill-rule="nonzero" fill-opacity="1"  clip-path="url(#clip-4)" >
<path d="M 609.76,64.36 L 609.76,355.1 742.24,355.1 742.24,64.36 Z" />
</g>
</svg>
